<svg width="512" height="494" viewBox="0 0 512 494" fill="none" xmlns="http://www.w3.org/2000/svg">
<path d="M503.5 195.6L502.8 193.8L433.1 12.02C431.7 8.45001 429.2 5.43001 425.9 3.38001C423.5 1.83001 420.8 0.865014 417.9 0.570014C415 0.275014 412.2 0.653015 409.5 1.68001C406.8 2.70001 404.4 4.34001 402.4 6.46001C400.5 8.58001 399.1 11.13 398.3 13.9L351.3 157.9H160.8L113.7 13.9C112.9 11.13 111.5 8.59001 109.6 6.47001C107.6 4.35001 105.2 2.72001 102.5 1.70001C99.86 0.675014 96.98 0.295014 94.12 0.587014C91.26 0.878014 88.51 1.83001 86.08 3.38001C82.84 5.43001 80.33 8.45001 78.92 12.02L9.26703 193.8L8.54303 195.6C-1.48397 221.8 -2.71997 250.6 5.02303 277.6C12.77 304.5 29.07 328.3 51.47 345.2L51.74 345.4L52.33 345.8L158.3 425.3L210.9 465L242.9 489.2C246.6 491.1 251.2 493.5 255.9 493.5C260.6 493.5 265.2 491.1 268.9 489.2L300.9 465L353.5 425.3L460.2 345.4L460.5 345.1C482.9 328.2 499.2 304.5 506.1 277.6C514.7 250.6 513.5 221.8 503.5 195.6Z" fill="#D8D8D8"/>
</svg>
