<svg width="702" height="494" viewBox="0 0 702 494" fill="none" xmlns="http://www.w3.org/2000/svg">
<path d="M687.331 77.2943C679.257 46.8695 655.47 22.908 625.267 14.7763C570.522 0 351 0 351 0C351 0 131.48 0 76.7332 14.7763C46.5301 22.9093 22.7426 46.8695 14.669 77.2943C0 132.441 0 247.499 0 247.499C0 247.499 0 362.557 14.669 417.704C22.7426 448.129 46.5301 471.092 76.7332 479.224C131.48 494 351 494 351 494C351 494 570.52 494 625.267 479.224C655.47 471.092 679.257 448.129 687.331 417.704C702 362.557 702 247.499 702 247.499C702 247.499 702 132.441 687.331 77.2943ZM279.204 351.963V143.035L462.681 247.502L279.204 351.963Z" fill="#D8D8D8"/>
</svg>
